<svg version="1.2" xmlns="http://www.w3.org/2000/svg" viewBox="0 0 2000 2000" width="2000" height="2000">
	<style>
		.s0 { fill: #d1cdc2 } 
		.s1 { fill: #859cb6 } 
		.s2 { fill: #37b437 } 
		.s3 { fill: #016e4e } 
	</style>
	<g id="Layer 1">
		<g id="&lt;Group&gt;">
			<g id="&lt;Group&gt;">
				<g id="&lt;Group&gt;">
				</g>
				<g id="&lt;Group&gt;">
					<g id="&lt;Group&gt;">
					</g>
					<g id="&lt;Group&gt;">
						<g id="&lt;Group&gt;">
						</g>
					</g>
				</g>
			</g>
			<g id="&lt;Group&gt;">
				<g id="&lt;Group&gt;">
					<path id="&lt;Compound Path&gt;" class="s0" d="m826.8 1742.02v-691.79q-0.01-64.23 35.66-104.3c23.75-26.7 55.02-40.04 93.73-40.04q50.19 0 81.42 25.52 31.23 25.53 38.28 70.42 75.7-106.5 249.94-106.5c68.08 0 129.07 13.93 183.08 41.81q80.98 41.81 126.73 120.57 45.8 78.77 45.8 187.02v497.29q-0.01 42.24-16.73 75.25-16.77 33-46.65 51.05c-19.97 12.01-42.26 18.04-66.89 18.04q-58.11 0.01-93.72-40.06-35.67-40.02-35.66-104.28v-452.39q0-87.13-47.08-132.47c-31.42-30.21-72.32-45.32-122.79-45.32-34.04 0-63.65 7.79-88.9 23.33-25.25 15.55-44.3 36.52-57.21 62.93q-19.36 39.59-19.35 91.53v452.39q-0.01 42.24-16.74 75.25c-11.14 22-26.71 39.02-46.64 51.05-19.94 12.01-42.22 18.04-66.89 18.04-38.71 0-69.98-13.34-93.73-40.06q-35.67-40.02-35.66-104.28z"/>
				</g>
				<g id="&lt;Group&gt;">
					<g id="&lt;Group&gt;">
						<path id="&lt;Path&gt;" class="s1" d="m541.18 1028.28l-18.19 65.07h25.28l97.39-96.38c48.05-47.54 54.82-120.73 20.59-175.78-5.53-8.88-11.87-17.39-19.53-25.14l-67.72-68.48-68.45 67.76c-55.77 55.19-56.28 145.13-1.07 200.92z"/>
					</g>
					<g id="&lt;Group&gt;">
						<g id="&lt;Group&gt;">
							<path id="&lt;Path&gt;" class="s2" d="m841.27 418.26v83.06c0 98.36-80 178.36-178.36 178.36h-52.02l-31.03 37.16-31.48-37.16h-52.02c-98.36 0-178.36-80-178.36-178.36v-83.06h83.5c98.36 0 178.36 79.56 178.36 177.92 0-98.36 79.56-177.92 178.36-177.92z"/>
							<path id="&lt;Path&gt;" class="s3" d="m628.82 434.43l-48.96 49.4v-369.83l48.96 48.96c75.19 75.19 75.19 196.72 0 271.47z"/>
							<path id="&lt;Path&gt;" class="s2" d="m579.86 114v369.83l-49.4-49.4c-74.76-74.75-74.76-196.28 0-271.47z"/>
						</g>
						<path id="&lt;Path&gt;" class="s3" d="m841.27 418.26v83.06c0 98.36-80 178.36-178.36 178.36h-52.02l-31.03 37.16-31.48-37.16h-52.02c-98.36 0-178.36-80-178.36-178.36v-83.06l261.86 261.86z"/>
					</g>
				</g>
			</g>
			<g id="&lt;Group&gt;">
				<g id="&lt;Group&gt;">
				</g>
				<g id="&lt;Group&gt;">
					<g id="&lt;Group&gt;">
					</g>
					<g id="&lt;Group&gt;">
						<g id="&lt;Group&gt;">
						</g>
					</g>
				</g>
			</g>
			<g id="&lt;Group&gt;">
				<g id="&lt;Group&gt;">
				</g>
				<g id="&lt;Group&gt;">
					<g id="&lt;Group&gt;">
					</g>
					<g id="&lt;Group&gt;">
						<g id="&lt;Group&gt;">
						</g>
					</g>
				</g>
			</g>
			<g id="&lt;Group&gt;">
				<g id="&lt;Group&gt;">
				</g>
				<g id="&lt;Group&gt;">
					<g id="&lt;Group&gt;">
					</g>
					<g id="&lt;Group&gt;">
						<g id="&lt;Group&gt;">
						</g>
					</g>
				</g>
			</g>
			<g id="&lt;Group&gt;">
				<g id="&lt;Group&gt;">
				</g>
				<g id="&lt;Group&gt;">
					<g id="&lt;Group&gt;">
					</g>
					<g id="&lt;Group&gt;">
						<g id="&lt;Group&gt;">
						</g>
					</g>
				</g>
			</g>
		</g>
	</g>
</svg>